<svg xmlns="http://www.w3.org/2000/svg" width="50" height="136" viewBox="0 0 50 136">
    <path fill="#4EC41A" fill-rule="evenodd" d="M49.568 132.95C33.21 101.874 22.138 68.069 17.174 33.2c-1.232-8.412-2-16.859-2.59-25.35.253.594.51 1.182.666 1.419 1.029 2.075 1.994 4.262 3.023 6.338 2.152 4.499 1.589 4.456 5.245 7.9.767.737 2.071 1.05 2.266-.32.304-1.305-1.046-2.825-1.917-3.62-3.718-3.337-2.244-4.094-4.35-8.421-1.121-2.422-2.357-4.918-4.006-7.205-.473-.722-1.287-1.63-2.048-2.372-.43-.54-.967-1.151-1.587-1.363-.669-.386-1.307-.308-1.562.132-2.614.413-3.249 3.31-3.94 5.28-.835 2.481-1.498 4.915-2.225 7.46C2.696 18.165 1.625 18.06.86 23.245c-.195 1.37.865 2.868 1.915 3.621.715.559 2.071 1.05 2.266-.32.731-4.617 1.6-3.89 2.841-8.36.599-2.323 1.242-4.468 1.952-6.727.146-.51.432-1.527.79-2.654 1.043 15.42 3.364 30.688 6.679 45.791 3.926 17.379 9.188 34.493 15.985 51.012 3.875 9.498 8.227 18.679 12.992 27.651.52.895 1.744 2.635 2.91 2.421 1.264-.151.746-2.079.379-2.73z"/>
</svg>
