<svg xmlns="http://www.w3.org/2000/svg" width="10" height="12" viewBox="0 0 10 12">
    <g fill="#000" fill-rule="evenodd" opacity=".5">
        <path d="M9 12H1c-.244-.006-.526-.21-1 0-.02-.761-.006-1.284 0-1V1C.002.793.182.517 0 0c.668.027 1.127 0 1 0 .264 0 .278 0 0 0h8c.446 0 1 .556 1 1v10c0 .444-.554 1-1 1zM1 1c.353 0 .186.025 0 0 .07.143.003.212 0 0v9c.004.45.003.463 0 0-.004.545.002.776 0 1 .132-.081.199-.006 0 0h8c-.181 0 0-.185 0 0V1c0 .184-.181 0 0 0H1c.438 0 .438 0 0 0z"/>
        <path d="M8 4H2c.171 0 0-.224 0-1 0 .224.171 0 0 0h6c-.171 0 0 .224 0 0 0 .777-.171 1 0 1zM8 6H2c.171 0 0-.224 0-1 0 .224.171 0 0 0h6c-.171 0 0 .224 0 0 0 .777-.171 1 0 1zM8 8H2c.171 0 0-.224 0 0 0-.776.171-1 0-1h6c-.171 0 0 .224 0 1 0-.224-.171 0 0 0z"/>
    </g>
</svg>
