<svg xmlns="http://www.w3.org/2000/svg" width="16" height="16" viewBox="0 0 16 16">
    <path fill="#000" fill-rule="evenodd" d="M15.997 12.17l.003-.03V3.571v-.01-.02c0-.016-.005-.032-.006-.049a.487.487 0 0 0-.008-.053l-.014-.043c-.006-.02-.012-.039-.02-.058l-.003-.008c-.005-.011-.013-.021-.02-.032a.457.457 0 0 0-.062-.09l-.036-.04c-.013-.012-.027-.022-.042-.034a.36.36 0 0 0-.04-.028c-.017-.012-.035-.02-.053-.028-.01-.006-.02-.012-.032-.017L8.142.038C8.132.033 8.122.033 8.11.03 8.09.022 8.068.015 8.045.01L7.998.005C7.98.003 7.961 0 7.943 0c-.018 0-.036.003-.052.005L7.84.01c-.02.004-.04.011-.059.017l-.038.011-3.195 1.304a.509.509 0 0 0-.062.025L.33 3.063l-.002.002c-.013.005-.025.013-.038.02-.015.007-.03.014-.045.023a.069.069 0 0 0-.01.007c-.011.007-.02.016-.03.024l-.04.033-.036.04c-.011.012-.023.024-.032.038l-.007.01c-.008.01-.013.024-.02.036 0 .003-.002.004-.003.007-.006.01-.013.02-.018.031 0 .003-.002.004-.003.007a.414.414 0 0 0-.015.045L.026 3.4c-.005.013-.01.027-.013.042a.015.015 0 0 0-.002.006c-.002.007-.002.016-.003.023 0 .009-.002.017-.003.025L0 3.545v8.595c0 .005 0 .01.002.014a.533.533 0 0 0 .318.51l7.52 3.29c.004.002.008.002.01.004.028.011.055.02.082.026l.026.006c.03.005.062.009.095.01h.002l.018-.002.014.002a.526.526 0 0 0 .312-.103l7.281-3.2a.534.534 0 0 0 .317-.526zM4.7 2.436l5.976 2.783-2.623 1.233L1.87 3.589 4.7 2.435zM7.945 1.11l6.184 2.484-2.193 1.031-5.887-2.741 1.896-.774zm-6.88 3.283l6.49 3.004v7.265l-6.49-2.84v-7.43zm7.556 2.97L14.933 4.4v7.459l-6.312 2.774V7.364z"/>
</svg>
