<svg xmlns="http://www.w3.org/2000/svg" width="42" height="44" viewBox="0 0 42 44">
    <g fill="#4EC41A" fill-rule="evenodd">
        <path d="M20.702 20.968l-.96.634a1.306 1.306 0 0 1-1.008.201 1.28 1.28 0 0 1-.855-.566 1.306 1.306 0 0 1-.201-1.008c.07-.365.259-.65.566-.855l.595-.384c.218-.14.359-.233.423-.278.064-.045.153-.115.268-.211.116-.096.212-.195.288-.298l.288-.403c.077-.077.116-.23.116-.46.09-.334.21-.602.364-.807.372-.487.858-.71 1.46-.672.473.038.832.262 1.075.672.051.102.096.211.134.326.013.064.026.141.039.23.012.09.025.193.038.308.013.192.02.46.02.806.012.5.025 1.223.038 2.17.025 4.608.025 7.34 0 8.198a1.315 1.315 0 0 1-.423.941 1.276 1.276 0 0 1-.96.365 1.315 1.315 0 0 1-.94-.423 1.276 1.276 0 0 1-.365-.96c.038-1.228.038-3.737 0-7.526z"/>
        <path d="M13.307 4.175c-1.532 1.131-.043 3.738 1.511 2.59 6.707-4.955 16.395-4.424 21.32 2.817 4.915 7.228 1.77 18.415-3.72 24.456-5.656 6.224-15.385 8.524-22.363 3.052-3.523-2.765-5.327-7.321-5.953-11.665-.782-5.407 1.86-9.312 5.118-13.303C10.432 10.64 8.326 8.506 7.105 10c-2.654 3.247-5.342 6.647-6.012 10.913-.654 4.162.557 8.65 2.314 12.409 3.29 7.028 10.962 10.822 18.554 9.69C37.533 40.695 48.621 17.6 36.577 5.457c-6.28-6.338-16.248-6.469-23.27-1.28z"/>
    </g>
</svg>
