<svg xmlns="http://www.w3.org/2000/svg" width="58" height="57" viewBox="0 0 58 57">
    <g fill="#4EC41A" fill-rule="evenodd">
        <path d="M25.84 49.273H12.135c-3.336 0-5.84-1.086-7.033-3.13-1.25-2.167-.952-5.3.835-8.611l1.67-3.13-3.16-1.747-1.728 3.13C.339 40.3.04 44.757 1.946 48.009c1.846 3.192 5.481 4.936 10.13 4.936H25.84v3.732l7.927-6.743-7.927-6.742v6.08zM55.16 36.327l-6.974-11.982 3.694-2.167-9.77-3.553-1.788 10.295 4.708-2.769L52 38.134c1.788 3.07 2.145 5.839 1.013 7.887-1.133 2.048-3.873 3.252-7.508 3.252h-3.516v3.672h3.516c5.006 0 8.82-1.806 10.667-5.059 1.846-3.251 1.43-7.344-1.012-11.559zM38.832 7.125C36.331 2.728 32.932.32 29.24.32c-3.694 0-7.15 2.408-9.593 6.805L12.97 18.866 9.277 16.7l1.787 10.296 9.714-3.554-4.648-2.768L22.743 8.93c1.788-3.192 4.113-4.999 6.437-4.999 2.384 0 4.65 1.747 6.437 5l1.729 3.129 3.159-1.807-1.673-3.129z"/>
    </g>
</svg>
