<svg xmlns="http://www.w3.org/2000/svg" width="63" height="65" viewBox="0 0 63 65">
    <g fill="#4EC41A" fill-rule="evenodd">
        <path d="M1.57 35.835a4.194 4.194 0 0 0-.99 3.754 4.166 4.166 0 0 0 2.518 2.945l3.412 1.358v.003c.438.18.67.667.536 1.124l-1.069 3.525a4.187 4.187 0 0 0 .711 3.836 4.146 4.146 0 0 0 3.557 1.57l3.657-.26c.476-.035.9.304.971.782l.564 3.639a4.16 4.16 0 0 0 2.302 3.117c1.23.6 2.676.545 3.863-.135l3.186-1.828v.004a.92.92 0 0 1 1.21.277l2.077 3.037A4.155 4.155 0 0 0 31.5 64.39c1.369 0 2.65-.677 3.425-1.808l2.077-3.037a.916.916 0 0 1 1.21-.277l3.186 1.828v-.004a4.128 4.128 0 0 0 3.863.135 4.16 4.16 0 0 0 2.302-3.117l.564-3.64c.08-.47.499-.809.97-.782l3.658.261a4.149 4.149 0 0 0 3.54-1.56 4.197 4.197 0 0 0 .728-3.816l-1.069-3.525v.004a.934.934 0 0 1 .536-1.127l3.412-1.358a4.177 4.177 0 0 0 1.52-6.7l-2.477-2.718a.932.932 0 0 1 0-1.249l2.484-2.712v.004a4.187 4.187 0 0 0 .995-3.755 4.174 4.174 0 0 0-2.515-2.949l-3.412-1.357a.928.928 0 0 1-.536-1.124l1.069-3.524h-.004a4.182 4.182 0 0 0-.695-3.86 4.148 4.148 0 0 0-3.576-1.574l-3.657.26a.93.93 0 0 1-.971-.782l-.564-3.639a4.16 4.16 0 0 0-2.302-3.117 4.128 4.128 0 0 0-3.863.135l-3.186 1.865a.921.921 0 0 1-1.21-.28l-2.077-3.034a4.146 4.146 0 0 0-6.85 0L25.998 5.49a.921.921 0 0 1-1.21.281l-3.186-1.831a4.129 4.129 0 0 0-3.863-.139 4.165 4.165 0 0 0-2.302 3.12l-.564 3.64a.92.92 0 0 1-.97.78l-3.658-.292a4.149 4.149 0 0 0-3.54 1.56 4.197 4.197 0 0 0-.728 3.816l1.069 3.525v-.004a.934.934 0 0 1-.536 1.127l-3.412 1.392A4.166 4.166 0 0 0 .58 25.41a4.194 4.194 0 0 0 .99 3.754l2.485 2.685a.929.929 0 0 1 0 1.3l-2.484 2.685zm4.869-6.162L3.95 26.968a.934.934 0 0 1-.209-.836.929.929 0 0 1 .573-.647l3.412-1.357a4.206 4.206 0 0 0 2.413-5.095l-1.068-3.524a.923.923 0 0 1 .161-.843.915.915 0 0 1 .786-.366l3.658.26h-.003a4.185 4.185 0 0 0 4.402-3.51l.563-3.64a.913.913 0 0 1 .512-.683.906.906 0 0 1 .854.034l3.185 1.828v-.004a4.16 4.16 0 0 0 5.488-1.252l2.077-3.037a.918.918 0 0 1 1.514 0l2.076 3.037h.004a4.16 4.16 0 0 0 5.488 1.252l3.186-1.828v.004a.897.897 0 0 1 .85-.034.928.928 0 0 1 .515.684l.563 3.639a4.182 4.182 0 0 0 4.4 3.524l3.657-.26a.887.887 0 0 1 .782.345.907.907 0 0 1 .162.843l-1.092 3.53a4.203 4.203 0 0 0 2.44 5.09l3.385 1.363a.923.923 0 0 1 .337 1.483l-2.484 2.712a4.202 4.202 0 0 0 0 5.647l2.484 2.712c.202.223.28.531.216.826a.928.928 0 0 1-.553.65l-3.412 1.357a4.198 4.198 0 0 0-2.413 5.095l1.068 3.524a.924.924 0 0 1-.947 1.209l-3.658-.26h.003a4.185 4.185 0 0 0-4.402 3.51l-.563 3.64a.913.913 0 0 1-.512.683.906.906 0 0 1-.854-.034l-3.185-1.828v.004a4.168 4.168 0 0 0-5.488 1.252l-2.077 3.037a.918.918 0 0 1-1.514 0l-2.076-3.037h-.004a4.165 4.165 0 0 0-3.435-1.8 4.1 4.1 0 0 0-2.046.548l-3.172 1.824a.92.92 0 0 1-1.365-.65l-.557-3.639a4.187 4.187 0 0 0-4.402-3.524l-3.659.26h.004a.924.924 0 0 1-.947-1.188l1.068-3.53a4.203 4.203 0 0 0-2.44-5.09l-3.385-1.363a.923.923 0 0 1-.337-1.483l2.484-2.712a4.203 4.203 0 0 0-.023-5.647z"/>
        <path d="M20.702 35.49l6.74 6.763a2.993 2.993 0 0 0 4.24 0L42.298 31.59a3.03 3.03 0 0 0 0-4.259l-2.384-2.417a2.992 2.992 0 0 0-2.12-.883c-.796 0-1.558.318-2.12.883l-6.116 6.121-2.214-2.224v.003a2.987 2.987 0 0 0-4.239 0L20.7 31.23a3.016 3.016 0 0 0-.876 2.13c0 .799.316 1.564.879 2.13zm4.53-4.205l3.187 3.199v-.004a1.659 1.659 0 0 0 2.292 0l7.06-7.099 2.07 2.079-10.283 10.325-6.402-6.429 2.077-2.071z"/>
    </g>
</svg>
