<svg xmlns="http://www.w3.org/2000/svg" width="50" height="61" viewBox="0 0 50 61"><title>dish-washer-safe</title><g fill="none" fill-rule="evenodd"><path fill="#4EC41A" d="M0 0v61h50V0H0zm3.125 57.845V3.155h43.75v54.69H3.125z"/><path stroke="#4EC41A" stroke-width="3.574" d="M33.898 34.326c-.425-1.196-1.085-2.401-2.036-3.78-1.121-1.618-2.485-3.231-4.05-4.877a55.89 55.89 0 0 0-1.98-1.976l-.115-.105c-.04-.033-.04-.033.101.078l-.165-.135-.648-.596-.682.627c-.727.635-2.616 2.538-4.225 4.455-1.244 1.49-2.217 2.827-2.973 4.145-.434.755-.771 1.468-1.02 2.17-.27.765-.408 1.466-.413 2.163 0 2.494.997 4.847 2.726 6.569a9.307 9.307 0 0 0 13.162-.002 9.253 9.253 0 0 0 2.724-6.58c.005-.681-.13-1.362-.406-2.156zm0 0l-.002-.003.003.007-.001-.004z"/><path fill="#4EC41A" d="M9.375 12.621h13.542V9.466H9.375zM27.083 12.621h6.25V9.466h-6.25z"/></g></svg>