<svg xmlns="http://www.w3.org/2000/svg" width="71" height="72" viewBox="0 0 71 72">
    <g fill="#4EC41A" fill-rule="evenodd">
        <path d="M24.487 54.425h22.026a1.504 1.504 0 1 0 0-3.008H24.487a1.505 1.505 0 1 0 0 3.008zM16.93 36.38a2.899 2.899 0 0 0-2.885-2.886c-1.598 0-2.863 1.303-2.863 2.887a2.865 2.865 0 0 0 2.863 2.883 2.89 2.89 0 0 0 2.884-2.883zM25.467 36.38c0-1.583-1.283-2.886-2.865-2.886-1.601 0-2.862 1.303-2.862 2.887a2.862 2.862 0 0 0 2.862 2.883c1.582.003 2.865-1.295 2.865-2.883zM23.349 19.887a1.49 1.49 0 0 0 1.06-.44c3.932-3.934 2.69-6.713 1.783-8.74-.828-1.851-1.327-2.969 1.224-5.518A1.505 1.505 0 0 0 25.29 3.06c-4.012 4.016-2.758 6.825-1.845 8.875.813 1.82 1.306 2.92-1.161 5.388a1.504 1.504 0 0 0 0 2.127c.292.29.676.437 1.065.437zM33.663 21.564c.384 0 .772-.149 1.065-.444 2.04-2.04 3.09-3.97 3.22-5.906.115-1.762-.533-3.213-1.11-4.494-1.012-2.252-1.749-3.885 1.564-7.204a1.502 1.502 0 0 0-.003-2.128 1.501 1.501 0 0 0-2.127 0c-2.081 2.087-3.158 4.056-3.294 6.017-.122 1.791.532 3.257 1.113 4.548 1.035 2.302 1.72 3.823-1.493 7.035a1.502 1.502 0 0 0 0 2.128c.295.303.68.448 1.065.448zM44.664 19.887c.384 0 .772-.148 1.065-.444 3.919-3.93 2.673-6.71 1.76-8.737-.829-1.85-1.331-2.968 1.227-5.521a1.507 1.507 0 0 0 0-2.128 1.503 1.503 0 0 0-2.126-.004c-4.027 4.02-2.766 6.832-1.845 8.886.817 1.82 1.312 2.916-1.146 5.38a1.504 1.504 0 0 0 1.065 2.568z"/>
        <path d="M69.495 26.67H1.5C.673 26.67 0 27.344 0 28.177v24.965a1.504 1.504 0 1 0 3.007 0l.003-23.463h64.98v39.305l-9.566.003V45.052a1.5 1.5 0 0 0-1.502-1.502H14.045c-.829 0-1.505.673-1.505 1.502v23.935H1.5a1.504 1.504 0 1 0 0 3.009h67.986c.832 0 1.505-.673 1.505-1.506L71 28.177c0-.833-.673-1.507-1.505-1.507zM55.417 68.987H15.55V46.555h39.867v22.432z"/>
    </g>
</svg>
