<svg xmlns="http://www.w3.org/2000/svg" width="44" height="50" viewBox="0 0 44 50">
    <path fill="#4EC41A" fill-rule="evenodd" d="M27.707 4.47A15.225 15.225 0 0 0 16.534.005C8.211.175 1.426 7.186 1.426 15.615v23.017a4.287 4.287 0 0 0-1.425 3.282v3.564c0 1.2.481 2.349 1.336 3.2A4.572 4.572 0 0 0 4.562 50h24.514c1.209 0 2.37-.474 3.225-1.322.855-.851 1.336-2 1.336-3.203v-3.56a4.584 4.584 0 0 0-.911-2.717l9.407-9.782a6.693 6.693 0 0 0 1.297-7.339 6.792 6.792 0 0 0-6.316-4.033 7.05 7.05 0 0 0-4.79 2.095l-.112.112v-4.975A15.156 15.156 0 0 0 27.707 4.47zm2.51 41.005a1.139 1.139 0 0 1-1.14 1.131H4.561c-.63 0-1.14-.506-1.14-1.13v-3.562c0-.624.51-1.13 1.14-1.13h24.514a1.139 1.139 0 0 1 1.14 1.13v3.561zm4.617-23.018a3.332 3.332 0 0 1 2.336-1.02 3.43 3.43 0 0 1 3.092 2.028c.54 1.22.311 2.64-.582 3.629l-9.921 10.351H4.847v-21.83c0-6.617 5.243-12.105 11.743-12.217a12.243 12.243 0 0 1 8.724 3.45 11.787 11.787 0 0 1 3.477 8.428v9.16c.027.69.446 1.306 1.084 1.586.647.28 1.401.12 1.88-.398l3.079-3.167z"/>
</svg>
