<svg xmlns="http://www.w3.org/2000/svg" width="37" height="45" viewBox="0 0 37 45">
    <g fill="none" fill-rule="evenodd">
        <path fill="#4EC41A" d="M.077.492v44.252h36.245V.492H.077zm34.184 42.11H2.136V2.633h32.122v39.97h.003z"/>
        <path stroke="#4EC41A" stroke-width="2.548" d="M24.67 25.378c-.308-.87-.788-1.746-1.478-2.747-.814-1.175-1.803-2.345-2.939-3.54a40.545 40.545 0 0 0-1.112-1.124c-.162-.157-.39-.37-.336-.331l-.118-.096-.484-.446-.508.468c-.528.461-1.898 1.842-3.065 3.233-.903 1.082-1.608 2.053-2.158 3.01a9.636 9.636 0 0 0-.74 1.576c-.197.558-.297 1.068-.3 1.577a6.74 6.74 0 0 0 1.982 4.78 6.766 6.766 0 0 0 9.57-.002 6.734 6.734 0 0 0 1.982-4.787c.003-.497-.094-.993-.296-1.571zm0 0l-.001-.003.002.005-.001-.002z"/>
        <path fill="#4EC41A" d="M6.66 9.313h9.451V7.17H6.66zM19.533 9.313h4.338V7.17h-4.338z"/>
    </g>
</svg>
