<svg xmlns="http://www.w3.org/2000/svg" width="66" height="27" viewBox="0 0 66 27">
    <path fill="#4EC41A" fill-rule="nonzero" d="M3.023 27H0V0h26.576c11.658 0 13.497 10.554 13.497 10.554L46.615 0h6.855L66 20.471l-3.925 6.528H45.552v-3.257h18.48L50.036 0s-9.226 16.178-11.206 19.33c-1.98 3.15-5.7 7.668-12.073 7.668h-9.87V10.925h3.128V23.74h7.192c3.181 0 10.007-2.731 10.007-10.452 0-7.722-7.296-10.138-9.694-10.138H3.023V27zm1.042 0V15.549H15.74V18.7H7.192V27H4.065zM15.74 14.183v-3.257H7.192V7.472h19.67c2.948 0 6.078 2.404 6.078 5.923 0 3.52-3.164 5.936-5.42 5.936h-3.066v-8.405h-3.232v11.556h6.298c3.988 0 8.6-3.489 8.6-8.982 0-5.44-4.194-9.192-9.21-9.192H4.067v9.875h11.675-.001zM35.701 27L50.035 3.153l11.779 19.33h-16.26V19.33H56.08l-6.046-9.928L40.081 27h-4.379z"/>
</svg>
