<svg xmlns="http://www.w3.org/2000/svg" width="47" height="38" viewBox="0 0 47 38">
    <g fill="#4EC41A" fill-rule="evenodd">
        <path d="M46.685 17.022a1.076 1.076 0 0 0-.76-.309c-.285 0-.558.11-.759.309l-2.448 2.406v-.617c-.005-5.487-2.456-10.696-6.708-14.27C31.756.968 26.119-.612 20.576.215c-5.543.826-10.439 3.977-13.414 8.627a1.035 1.035 0 0 0 .342 1.444A1.084 1.084 0 0 0 8.98 9.95c2.644-4.132 6.998-6.93 11.923-7.663 4.926-.734 9.932.67 13.713 3.844 3.78 3.176 5.957 7.804 5.965 12.679v.617l-2.448-2.406a1.09 1.09 0 0 0-1.518 0c-.42.41-.42 1.075 0 1.485l4.276 4.184c.2.2.474.309.759.309.286 0 .559-.11.76-.309l4.276-4.184a1.03 1.03 0 0 0 0-1.485zM39.495 27.714a1.099 1.099 0 0 0-.81-.133 1.074 1.074 0 0 0-.666.468c-2.643 4.132-6.997 6.93-11.922 7.663-4.926.734-9.931-.67-13.713-3.844-3.78-3.176-5.957-7.804-5.965-12.679v-.617l2.448 2.406c.2.199.473.309.76.309.284 0 .557-.11.758-.309a1.03 1.03 0 0 0 0-1.485l-4.276-4.184A1.075 1.075 0 0 0 5.35 15c-.286 0-.559.11-.76.309L.316 19.493c-.42.41-.42 1.075 0 1.485.419.41 1.098.41 1.518 0l2.448-2.406v.617c.005 5.487 2.456 10.696 6.708 14.27 4.254 3.573 9.891 5.153 15.434 4.326 5.543-.826 10.439-3.977 13.414-8.627.149-.235.2-.52.136-.792a1.056 1.056 0 0 0-.478-.652z"/>
    </g>
</svg>
