<svg xmlns="http://www.w3.org/2000/svg" width="55" height="42" viewBox="0 0 55 42">
    <g fill="#4EC41A" fill-rule="evenodd">
        <path fill-rule="nonzero" d="M4.177 2.1c-1.153 0-2.088.94-2.088 2.1v26.6c0 1.16.935 2.1 2.088 2.1h46.646c1.153 0 2.088-.94 2.088-2.1V4.2c0-1.16-.935-2.1-2.088-2.1H4.177zM46.646 35v-2.1H16.013V35H4.177C1.87 35 0 33.12 0 30.8V4.2C0 1.88 1.87 0 4.177 0h46.646C53.13 0 55 1.88 55 4.2v26.6c0 2.32-1.87 4.2-4.177 4.2h-4.177z"/>
        <path fill-rule="nonzero" d="M32.796 39.9c-.072 0-.143-.003-.215-.013-1.332-.116-2.043-.405-2.514-.597-.191-.078-.343-.14-.465-.158-.136-.02-.296-.032-.476-.046-.876-.07-2.202-.177-3.335-1.242-1.447-1.36-3.018-3.96-3.192-4.251-.422-.704-1.472-2.003-2.058-2.35-.63-.373-1.94-1.15-1.714-2.243.073-.354.29-.642.626-.82.563-.302 1.437-.303 2.282.01.538.199 1.216.654 1.872 1.11.504.35 1.194.797 1.385.797.315 0 .868-1.057.868-1.328 0-.293-.18-1.533-.4-2.38-.225-.873-.891-4.068-1.002-4.642-.216-1.104.165-1.927.993-2.146.361-.095.724-.05 1.05.13.493.274.883.848 1.099 1.617.278.99 1.5 4.36 2.018 5.034.271-.554.715-2.56.992-3.803.357-1.611.568-2.536.735-2.799.44-.687 1.152-1 1.91-.838.744.16 1.116.81 1.02 1.78-.015.157-.066.536-.132 1.042-.17 1.295-.592 4.508-.561 5.472.52-.44 1.695-1.823 2.202-2.683l.114-.193c.665-1.14 1.673-2.858 2.836-2.62.497.104.863.394 1.027.822.24.616.029 1.419-.575 2.198-.498.646-2.179 3.726-2.497 4.542.318-.017 1.074-.213 2.05-.95.194-.145.383-.292.565-.435.852-.669 1.584-1.246 2.253-1.176.27.03.505.164.698.4.803.981-.824 2.244-1.519 2.783l-.148.117c-.387.315-2.517 2.882-2.878 4.073-.02.06-1.845 5.786-4.914 5.786zm9.217-8.314c.366-.284.576-.455.842-.696.789-.714 1.34-1.42 1.588-2.317a3.015 3.015 0 0 0-.574-2.765 3.11 3.11 0 0 0-2.222-1.167c.367-.937.42-1.918.062-2.838-.43-1.115-1.382-1.875-2.557-2.12-1.058-.217-1.971.073-2.775.69-.026-1.707-.977-3.116-2.684-3.484-1.622-.35-3.201.345-4.108 1.761-.179.282-.29.506-.427.982-.394-.745-.946-1.35-1.65-1.74a3.475 3.475 0 0 0-2.589-.321c-2.018.534-2.92 2.483-2.512 4.576.167.865.718 3.456.966 4.504a6.152 6.152 0 0 0-.916-.432c-1.357-.502-2.839-.507-3.98.103a3.277 3.277 0 0 0-1.695 2.251c-.268 1.298.218 2.418 1.109 3.308.47.47.892.759 1.589 1.17.168.1 1.005 1.083 1.328 1.622a34.77 34.77 0 0 0 1.198 1.848c.804 1.157 1.592 2.137 2.359 2.857a6.249 6.249 0 0 0 1.581 1.086c.977.47 1.744.613 3.012.715l.133.01.099.01.09.036c.988.404 1.786.625 3.074.74.15.018.291.025.442.025 2.303 0 4.023-1.541 5.416-3.932.42-.721.782-1.48 1.09-2.24.188-.46.31-.802.405-1.101.067-.22.505-.926 1.096-1.71.27-.356.555-.712.806-1.005.173-.202.323-.362.279-.327l.125-.099z"/>
        <path d="M23.51 14.336c.02 0 .038 0 .058-.002a1.05 1.05 0 0 0 .987-1.105l-.202-3.749a1.054 1.054 0 0 0-1.098-.992 1.05 1.05 0 0 0-.988 1.104l.202 3.75c.03.562.492.994 1.042.994zM14.917 11.2c-.321.482-.19 1.135.288 1.457l4.601 3.09a1.041 1.041 0 0 0 1.45-.29c.32-.48.19-1.134-.288-1.457l-4.602-3.09a1.042 1.042 0 0 0-1.45.29zM12.752 18.804a1.047 1.047 0 0 0 1.208.856l4.525-.787a1.05 1.05 0 0 0 .85-1.214 1.043 1.043 0 0 0-1.207-.856l-4.525.787c-.57.099-.952.643-.851 1.214z"/>
    </g>
</svg>
